<svg xmlns="http://www.w3.org/2000/svg" viewBox="0 0 500 500"><g id="freepik--background-complete--inject-26"><path d="M363.14,49.19a2.94,2.94,0,0,1,0,3.09c-.16.26-.31.53-.45.8s-.28.54-.41.82a3,3,0,0,1-2.56,1.72l-3.8.12.38,12.38,3.8-.11a2.94,2.94,0,0,1,2.68,1.55,14.1,14.1,0,0,0,1,1.57,3,3,0,0,1,.19,3.08l-1.79,3.34,10.92,5.86,1.8-3.34a3,3,0,0,1,2.67-1.54c.61,0,1.23,0,1.84-.06a2.94,2.94,0,0,1,2.78,1.36l2,3.23,10.53-6.53-2-3.25a3,3,0,0,1,0-3.07c.16-.26.31-.53.45-.8s.29-.54.42-.81a2.94,2.94,0,0,1,2.56-1.73l3.81-.11-.39-12.39-3.79.12a2.92,2.92,0,0,1-2.67-1.55c-.3-.54-.63-1.07-1-1.58a3,3,0,0,1-.2-3.08l1.79-3.34-10.92-5.86L381,42.43A2.93,2.93,0,0,1,378.29,44c-.62,0-1.24,0-1.85.06a2.94,2.94,0,0,1-2.77-1.37l-2-3.22L361.14,46Zm19.56,3.1A10.15,10.15,0,1,1,369,56.45,10.16,10.16,0,0,1,382.7,52.29Z" style="fill:#ebebeb"></path><path d="M301.48,96a2.05,2.05,0,0,1,1,1.91c0,.22,0,.43,0,.64s0,.43,0,.65a2.06,2.06,0,0,1-1,1.91l-2.31,1.33,4.34,7.52,2.3-1.33a2.09,2.09,0,0,1,2.17.07,9.6,9.6,0,0,0,1.12.65,2.08,2.08,0,0,1,1.14,1.84v2.65h8.68v-2.65a2.08,2.08,0,0,1,1.14-1.84,9.6,9.6,0,0,0,1.12-.65,2.09,2.09,0,0,1,2.17-.07l2.3,1.33,4.34-7.52-2.32-1.34a2.06,2.06,0,0,1-1-1.91c0-.21,0-.42,0-.64s0-.42,0-.64a2.05,2.05,0,0,1,1-1.91L330,94.65l-4.34-7.52-2.3,1.33a2.05,2.05,0,0,1-2.16-.08,11.35,11.35,0,0,0-1.13-.64,2.08,2.08,0,0,1-1.14-1.84V83.24h-8.68V85.9a2.08,2.08,0,0,1-1.14,1.84,11.35,11.35,0,0,0-1.13.64,2.05,2.05,0,0,1-2.16.08l-2.3-1.33-4.34,7.52Zm13.11-4.56a7.11,7.11,0,1,1-7.11,7.11A7.12,7.12,0,0,1,314.59,91.42Z" style="fill:#ebebeb"></path><path d="M66.84,297.24a2.05,2.05,0,0,1,1,1.91c0,.21,0,.43,0,.64s0,.43,0,.65a2,2,0,0,1-1,1.9l-2.31,1.34,4.34,7.52,2.3-1.33a2,2,0,0,1,2.17.07,11.27,11.27,0,0,0,1.12.65,2.06,2.06,0,0,1,1.14,1.83v2.66h8.68v-2.66a2.06,2.06,0,0,1,1.14-1.83,11.27,11.27,0,0,0,1.12-.65,2,2,0,0,1,2.17-.07L91,311.2l4.34-7.52L93,302.34a2.06,2.06,0,0,1-1-1.91c0-.21,0-.42,0-.64s0-.43,0-.64a2.05,2.05,0,0,1,1-1.91l2.31-1.33L91,288.39l-2.3,1.33a2.05,2.05,0,0,1-2.16-.08c-.36-.23-.74-.45-1.13-.65a2.06,2.06,0,0,1-1.14-1.83V284.5H75.61v2.66A2.06,2.06,0,0,1,74.47,289c-.39.2-.77.42-1.13.65a2.05,2.05,0,0,1-2.16.08l-2.3-1.33-4.34,7.52ZM80,292.68a7.11,7.11,0,1,1-7.11,7.11A7.11,7.11,0,0,1,80,292.68Z" style="fill:#ebebeb"></path><polygon points="398.86 411.73 397.86 411.73 397.86 304.74 367.92 263.87 367.92 220.77 368.92 220.77 368.92 263.54 398.86 304.41 398.86 411.73" style="fill:#ebebeb"></polygon><path d="M368.42,221.31a3.16,3.16,0,1,1,3.16-3.16A3.16,3.16,0,0,1,368.42,221.31Zm0-5.32a2.16,2.16,0,1,0,2.16,2.16A2.17,2.17,0,0,0,368.42,216Z" style="fill:#ebebeb"></path><polygon points="391.14 411.73 390.14 411.73 390.14 309.67 360.2 268.81 360.2 248.77 361.2 248.77 361.2 268.48 391.14 309.35 391.14 411.73" style="fill:#ebebeb"></polygon><path d="M360.7,249.31a3.16,3.16,0,1,1,3.16-3.16A3.16,3.16,0,0,1,360.7,249.31Zm0-5.32a2.16,2.16,0,1,0,2.16,2.16A2.16,2.16,0,0,0,360.7,244Z" style="fill:#ebebeb"></path><rect x="405.29" y="258.93" width="1" height="152.8" style="fill:#ebebeb"></rect><path d="M405.79,259.43a3.16,3.16,0,1,1,3.16-3.16A3.16,3.16,0,0,1,405.79,259.43Zm0-5.32a2.16,2.16,0,1,0,2.16,2.16A2.16,2.16,0,0,0,405.79,254.11Z" style="fill:#ebebeb"></path><polygon points="413.44 411.05 412.44 411.05 412.44 316.87 432.77 278.53 432.77 209.92 433.77 209.92 433.77 278.77 413.44 317.12 413.44 411.05" style="fill:#ebebeb"></polygon><path d="M433.27,210.42a3.17,3.17,0,1,1,3.16-3.16A3.16,3.16,0,0,1,433.27,210.42Zm0-5.33a2.17,2.17,0,1,0,2.16,2.17A2.17,2.17,0,0,0,433.27,205.09Z" style="fill:#ebebeb"></path><polygon points="420.55 411.18 419.55 411.18 419.55 320.96 443.52 278.57 443.52 233.43 444.52 233.43 444.52 278.83 420.55 321.22 420.55 411.18" style="fill:#ebebeb"></polygon><path d="M444,233.93a3.16,3.16,0,1,1,3.16-3.16A3.17,3.17,0,0,1,444,233.93Zm0-5.32a2.16,2.16,0,1,0,2.16,2.16A2.17,2.17,0,0,0,444,228.61Z" style="fill:#ebebeb"></path></g><g id="freepik--Shadow--inject-26"><ellipse cx="250" cy="453.18" rx="156.8" ry="18.34" style="fill:#ebebeb"></ellipse><path d="M137.49,453.18c0,5.21-20.37,9.44-45.5,9.44s-45.51-4.23-45.51-9.44,20.38-9.44,45.51-9.44S137.49,448,137.49,453.18Z" style="fill:#ebebeb"></path></g><g id="freepik--Floor--inject-26"><polygon points="47.15 411.05 97.86 410.81 148.57 410.72 250 410.55 351.43 410.72 402.14 410.8 452.86 411.05 402.14 411.29 351.43 411.38 250 411.55 148.57 411.38 97.86 411.29 47.15 411.05" style="fill:#263238"></polygon></g><g id="freepik--Robot--inject-26"><path d="M198.57,165.2c-3.12,4.62-1.14,27.49,4.4,30.37s41.36-20.64,43-24.37,6.63-26.34,2.64-26.18S205,155.66,198.57,165.2Z" style="fill:#A254CE"></path><g style="opacity:0.2"><path d="M241.58,166.25a1,1,0,1,1-.23-2,1,1,0,1,1,.23,2Zm0,0a.78.78,0,0,0,.66-1,.76.76,0,0,0-.83-.54.76.76,0,1,0,.17,1.51Z"></path><path d="M233.22,171.22a1,1,0,0,1-1.11-.77,1,1,0,0,1,.88-1.24,1,1,0,0,1,1.13,1A1,1,0,0,1,233.22,171.22Zm0,0a.76.76,0,1,0-.17-1.52.76.76,0,0,0-.69.72A.78.78,0,0,0,233.22,171.22Z"></path><path d="M225.36,176.25a1,1,0,1,1,.9-1A1,1,0,0,1,225.36,176.25Zm0,0a.77.77,0,1,0-.18-1.52.77.77,0,1,0,.18,1.52Z"></path><path d="M218,180.53a1,1,0,1,1,.9-1A1,1,0,0,1,218,180.53Zm0,0a.76.76,0,1,0-.86-.79A.76.76,0,0,0,218,180.53Z"></path><path d="M210.3,184.52a1,1,0,1,1-.23-2,1,1,0,1,1,.23,2Zm0,0a.76.76,0,1,0-.17-1.51.76.76,0,1,0,.17,1.51Z"></path><path d="M202.86,188.42a1,1,0,1,1,.9-1A1,1,0,0,1,202.86,188.42Zm0,0a.77.77,0,1,0-.18-1.52.77.77,0,1,0,.18,1.52Z"></path><path d="M245.37,167.36q-4.85,3.4-9.82,6.63c-3.32,2.15-6.67,4.23-10.05,6.29s-6.8,4-10.28,5.9-7,3.67-10.61,5.27c3.53-1.77,7-3.67,10.43-5.61s6.83-4,10.21-6,6.74-4.11,10.09-6.19S242,169.48,245.37,167.36Z"></path></g><path d="M189.61,195c-9,0-46.08-29.61-45.58-36.43s16.63-21.34,22.78-20.48,26.3,21.16,28.79,25.65S199.26,195,189.61,195Z" style="fill:#A254CE"></path><g style="opacity:0.2"><path d="M174.6,177.92a1,1,0,1,1,1.28.44A1,1,0,0,1,174.6,177.92Zm0,0a.78.78,0,0,0,1.15.22.79.79,0,0,0,.18-1,.77.77,0,1,0-1.33.76Z"></path><path d="M167.92,172.44a1,1,0,1,1,1.28.44A1,1,0,0,1,167.92,172.44Zm0,0a.78.78,0,0,0,1.15.22.79.79,0,0,0,.18-1,.77.77,0,1,0-1.33.76Z"></path><path d="M161.42,167.13a1,1,0,1,1,1.27.43A1,1,0,0,1,161.42,167.13Zm0,0a.76.76,0,1,0,1.32-.76.76.76,0,1,0-1.32.76Z"></path><path d="M155.39,162.22a1,1,0,0,1,.26-1.31,1,1,0,1,1-.26,1.31Zm0,0a.76.76,0,1,0,1.32-.75.76.76,0,1,0-1.32.75Z"></path><path d="M172.67,178.63a38.38,38.38,0,0,1-6-3.78c-1.89-1.41-3.7-2.93-5.46-4.49s-3.45-3.22-5.11-4.89l-2.44-2.56-2.34-2.64,5,4.93c1.71,1.61,3.4,3.24,5.17,4.79s3.53,3.09,5.37,4.56c.91.73,1.85,1.44,2.8,2.13A30.56,30.56,0,0,0,172.67,178.63Z"></path></g><path d="M195.49,197.67c-10.9-1.71-20.41-10.31-20.73-11.19s2.06-3.36,3.66-3.88,13.15,4.62,14,3.16,5.12-16.66,2-23.87c-.57-1.3,6-.83,6.81.42s1.63,14.79-.64,23.95c-.24,1,16.28-2.08,16.91-.72s2.18,3.38,1.25,4.09S206.74,199.45,195.49,197.67Z" style="fill:#37474f"></path><path d="M197.74,181.07c7.12.93,12.35,5.83,11.68,11s-7,8.52-14.11,7.59-12.35-5.84-11.68-11S190.61,180.13,197.74,181.07Z" style="fill:#455a64"></path><path d="M142.2,157c2.76,2.79,10.47-.09,15.56-4.42s10.54-11.41,9.05-14.57c-1-2.2-6.43-3.51-16.63,4S140.85,155.66,142.2,157Z" style="fill:#37474f"></path><path d="M143.42,154.49c4.61,1.22,18.89-10.57,19.51-15.63.21-1.68-12.75-23.83-17.07-23.83s-21.17,19.39-18.62,24.05S141,153.85,143.42,154.49Z" style="fill:#A254CE"></path><path d="M127.05,138.64c1.54.91,4.65-.69,6.31-3.26,2.32-3.6,2.13-6.12,1-7.22-.76-.77-4.18-.7-6.9,3.5C125.31,135,125.83,137.93,127.05,138.64Z" style="fill:#37474f"></path><path d="M137.47,123c1.25,1.27,4.67.54,6.93-1.5,3.18-2.87,3.66-5.35,2.9-6.7-.54-.94-3.85-1.77-7.57,1.57C136.72,119.08,136.48,122,137.47,123Z" style="fill:#37474f"></path><path d="M146.24,114.42c-2.17-2.76-9.28-9.8-10.75-9.81-4.24,0-6.25,4.46-5.49,6.29.45,1.08,5.73,10.85,8.39,11C142.42,122.17,147.58,116.13,146.24,114.42Z" style="fill:#A254CE"></path><path d="M125.87,136.65c-1.55-3.18-5.08-11.73-4.24-14.28s2.86-4.21,4.24-3.88,8.24,8.2,8.35,10.75S127.15,139.31,125.87,136.65Z" style="fill:#A254CE"></path><path d="M129.66,110.92c1.38.88,3.74-.37,5.28-2.08,2-2.24,1.65-4.46.41-5.17-.81-.46-3.31-.23-4.95,2.35C129.2,107.9,128.56,110.22,129.66,110.92Z" style="fill:#37474f"></path><path d="M121.4,123.19c.43,1.33,3.09,1.28,4.82.14,1.9-1.24,2.59-3.06,1.75-4a3.46,3.46,0,0,0-4.75.24C121.69,120.83,121,122,121.4,123.19Z" style="fill:#37474f"></path><path d="M129.24,110.46c-3.23-.44-10.21-2.11-13-4.94-1.88-1.88-.7-3.51,1.22-3.84s15,.41,16.94,2.41S131.88,110.81,129.24,110.46Z" style="fill:#A254CE"></path><path d="M121.87,122.64c-1.1-1-.24-8.88.72-10.7s3.07-2.49,3.84-1.25,1.47,8.49,1.12,9.55C127.12,121.51,123.43,124,121.87,122.64Z" style="fill:#A254CE"></path><path d="M243.4,423.07c-5.79,3.11-46.06,24.83-44.2,31.33s84.53-2.38,87.05-4.65-4.71-29.9-6.74-29.6S245.34,422,243.4,423.07Z" style="fill:#A254CE"></path><path d="M248.79,242.27c-5.46,7.67-15.12,72.6-12.65,78.81s29.62,13.26,36.38,7.78,12.91-81.7,8.09-87.24-11.51-8.73-16.9-8.11S253.48,235.67,248.79,242.27Z" style="fill:#A254CE"></path><g style="opacity:0.2"><path d="M271.08,245.38a1,1,0,1,1-.3-1.31A1,1,0,0,1,271.08,245.38Zm0,0a.77.77,0,1,0-1.15.25A.78.78,0,0,0,271.08,245.38Z"></path><path d="M271.35,254.8a1,1,0,1,1-.3-1.31A1,1,0,0,1,271.35,254.8Zm0,0a.76.76,0,1,0-1.34-.72.76.76,0,0,0,.19,1A.78.78,0,0,0,271.35,254.8Z"></path><path d="M271.59,264.38a1,1,0,0,1-1.26.47,1,1,0,0,1-.52-1.43,1,1,0,1,1,1.78,1Zm0,0a.76.76,0,1,0-1.14.25A.77.77,0,0,0,271.59,264.38Z"></path><path d="M270.87,274.08a1,1,0,1,1-.3-1.31A1,1,0,0,1,270.87,274.08Zm0,0a.76.76,0,1,0-1.34-.73.76.76,0,1,0,1.34.73Z"></path><path d="M270.49,283.41a1,1,0,0,1-1.26.46,1,1,0,1,1,1.26-.46Zm0,0a.76.76,0,1,0-1.14.25A.78.78,0,0,0,270.49,283.41Z"></path><path d="M269.77,291.92a1,1,0,1,1-1.78-1,1,1,0,1,1,1.78,1Zm0,0a.76.76,0,1,0-1.34-.73.76.76,0,1,0,1.34.73Z"></path><path d="M268.65,300.49a1,1,0,1,1-1.78-1,1,1,0,1,1,1.78,1Zm0,0a.76.76,0,1,0-1.14.25A.78.78,0,0,0,268.65,300.49Z"></path><path d="M267.58,308.82a1,1,0,0,1-1.26.47,1,1,0,1,1,1.26-.47Zm0,0a.76.76,0,1,0-1.34-.73.76.76,0,1,0,1.34.73Z"></path><path d="M266.6,316.53a1,1,0,0,1-1.78-1,1,1,0,1,1,1.78,1Zm0,0a.76.76,0,1,0-1.14.25A.77.77,0,0,0,266.6,316.53Z"></path><path d="M265.05,324.47a1,1,0,0,1-1.26.46,1,1,0,1,1,1.26-.46Zm0,0a.76.76,0,1,0-1.14.25A.77.77,0,0,0,265.05,324.47Z"></path><path d="M273.77,239.83a174.57,174.57,0,0,1,.65,21.82c-.17,7.28-.63,14.55-1.26,21.8-.38,3.62-.75,7.25-1.23,10.85s-1,7.22-1.51,10.82-1.2,7.18-1.79,10.77l-2.12,10.71,1.88-10.75c.56-3.6,1.21-7.18,1.7-10.78s1-7.2,1.42-10.82.8-7.23,1.15-10.84c.69-7.24,1.21-14.5,1.43-21.77.1-3.63.16-7.27.1-10.91S274.08,243.46,273.77,239.83Z"></path></g><path d="M237.19,333.59c-1.82,4.77,4.12,81.36,7.09,85s29.9,3.47,35.19-1.8,9.07-44.45,9.33-52.07-13.67-33-15.8-32.32C254.69,337.88,238.79,329.41,237.19,333.59Z" style="fill:#A254CE"></path><g style="opacity:0.2"><path d="M268.08,343a1,1,0,1,1-.46-1.27A1,1,0,0,1,268.08,343Zm0,0a.76.76,0,1,0-1.42-.56.76.76,0,1,0,1.42.56Z"></path><path d="M271.84,350.39a1,1,0,1,1-.46-1.26A1,1,0,0,1,271.84,350.39Zm0,0a.76.76,0,1,0-1.42-.55.76.76,0,0,0,.31.94A.78.78,0,0,0,271.84,350.39Z"></path><path d="M275.38,357.62a1,1,0,1,1-.45-1.26A1,1,0,0,1,275.38,357.62Zm0,0a.77.77,0,0,0-.54-1,.77.77,0,1,0,.54,1Z"></path><path d="M277.79,364.76a1,1,0,1,1-.46-1.27A1,1,0,0,1,277.79,364.76Zm0,0a.77.77,0,0,0-.55-1,.77.77,0,0,0-.56,1.41A.78.78,0,0,0,277.79,364.76Z"></path><path d="M277.83,373.38a1,1,0,1,1-1.88-.73,1,1,0,1,1,1.88.73Zm0,0a.76.76,0,1,0-1.41-.55.75.75,0,0,0,.31.94A.76.76,0,0,0,277.83,373.38Z"></path><path d="M276.25,391.14a1,1,0,1,1-1.88-.73,1,1,0,0,1,1.43-.53A1,1,0,0,1,276.25,391.14Zm0,0a.76.76,0,1,0-1.41-.55.75.75,0,0,0,.31.94A.76.76,0,0,0,276.25,391.14Z"></path><path d="M274.85,409.65a1,1,0,1,1-.45-1.26A1,1,0,0,1,274.85,409.65Zm0,0a.77.77,0,0,0-.54-1,.78.78,0,0,0-.87.48.75.75,0,0,0,.31.94A.76.76,0,0,0,274.85,409.65Z"></path><path d="M277.11,382.13a1,1,0,1,1-.46-1.26A1,1,0,0,1,277.11,382.13Zm0,0a.76.76,0,1,0-1.42-.55.76.76,0,0,0,.31.94A.78.78,0,0,0,277.11,382.13Z"></path><path d="M275.27,400.17a1,1,0,1,1-.46-1.26A1,1,0,0,1,275.27,400.17Zm0,0a.77.77,0,0,0-.55-1,.76.76,0,0,0-.87.48.76.76,0,1,0,1.42.55Z"></path><path d="M269.23,337.62c3,5.7,5.87,11.45,8.49,17.33.66,1.47,1.3,2.95,1.87,4.46.3.75.56,1.52.8,2.3.13.39.21.81.31,1.21s.09.81.13,1.22a71.13,71.13,0,0,1-.13,9.69c-.46,6.43-1.17,12.82-1.92,19.21l-1.17,9.58c-.4,3.19-.8,6.38-1.12,9.58.2-3.21.48-6.42.76-9.62l1-9.6c.63-6.4,1.34-12.79,1.74-19.2a71.38,71.38,0,0,0,.21-9.58c-.05-.39-.07-.79-.13-1.17s-.15-.75-.27-1.13c-.23-.76-.49-1.51-.78-2.26-.56-1.5-1.17-3-1.78-4.46-1.25-3-2.57-5.89-3.92-8.81S270.61,340.52,269.23,337.62Z"></path></g><path d="M235.65,329.06c.44-4.18,2.1-21.25,3.09-21.72s5.17-1.36,6,.44,2.57,19.24,4.37,20,17.14,2.92,24.69-1.56c1.42-.85,1.9,5.56.55,6.63s-13.26,5.67-24.16,4.13c-1.17-.17-3.84,20.88-5.35,21.76s-5.34.77-6.28-.24S234.79,337.16,235.65,329.06Z" style="fill:#37474f"></path><ellipse cx="241.95" cy="332.39" rx="15.19" ry="10.92" transform="translate(-97.11 564.9) rotate(-88.39)" style="fill:#455a64"></ellipse><path d="M244.28,418.58c-3.79-1.49-3.47,5,4,7.64,11.37,4,30.62-.62,32.71-4.19s.19-7.61-.68-6.43S257.82,423.91,244.28,418.58Z" style="fill:#37474f"></path><path d="M250.36,235.91c-2.93,7,5.47,14.88,12,17.62,11.3,4.72,17.86,3.27,20.91-1.94,2.74-4.7.73-17.49-10.14-21.84C261.68,225.17,251.72,232.67,250.36,235.91Z" style="fill:#37474f"></path><path d="M253,212.79c-1.88,2.71-3.73,18.58-3.54,22.23s16.37,19.11,32.34,18.78c0,0-.81-13,9.38-20s18.75-2,18.75-2-8.62-20.95-17.31-22.6C280,206.8,253,212.79,253,212.79Z" style="fill:#A254CE"></path><g style="opacity:0.2"><path d="M289.45,209.92a37.85,37.85,0,0,1,3,4.33c.92,1.51,1.74,3.07,2.51,4.65s1.44,3.21,2,4.87a45,45,0,0,1,1.48,5.06c-.6-1.65-1.17-3.3-1.84-4.92s-1.35-3.23-2.11-4.8-1.55-3.13-2.39-4.67S290.39,211.4,289.45,209.92Z"></path><path d="M289.28,214.29a1,1,0,1,1-.88-1A1,1,0,0,1,289.28,214.29Zm0,0a.76.76,0,1,0-.88.77A.76.76,0,0,0,289.28,214.29Z"></path><path d="M292.21,220.38a1,1,0,1,1-.89-1A1,1,0,0,1,292.21,220.38Zm0,0a.76.76,0,1,0-1.52,0,.76.76,0,1,0,1.52,0Z"></path><path d="M295.14,226.46a1,1,0,1,1-.89-1A1,1,0,0,1,295.14,226.46Zm0,0a.77.77,0,0,0-.89-.76.75.75,0,0,0-.63.76.76.76,0,1,0,1.52,0Z"></path></g><path d="M283,253.22c3.94,6.48,15.19,5.09,20.51.39,6.54-5.77,9.82-12.4,8.56-18.2-1.15-5.32-10.76-10.48-20.66-4.24C280.94,237.76,281.16,250.22,283,253.22Z" style="fill:#37474f"></path><path d="M356.59,415.37c-4.09,5.15-32.48,41-28.2,46.27S405.08,426,406.5,422.93s-16.16-25.6-17.9-24.52S358,413.64,356.59,415.37Z" style="fill:#A254CE"></path><path d="M284.87,254.54c-1.21,9.34,20.17,67.59,25.26,71.91s32.38-2.21,35.77-10.23-27-78.19-33.85-80.81-13.64-1.69-18.12,1.39S285.91,246.51,284.87,254.54Z" style="fill:#A254CE"></path><g style="opacity:0.2"><path d="M306.13,242.41a1,1,0,1,1-2,0,1,1,0,1,1,2,0Zm0,0a.77.77,0,1,0-.89.76A.77.77,0,0,0,306.13,242.41Z"></path><path d="M310.84,250.57a1,1,0,1,1-.89-1A1,1,0,0,1,310.84,250.57Zm0,0a.77.77,0,0,0-.89-.76.77.77,0,0,0,0,1.52A.77.77,0,0,0,310.84,250.57Z"></path><path d="M315.6,258.88a1,1,0,1,1-2,0,1,1,0,0,1,1.14-1A1,1,0,0,1,315.6,258.88Zm0,0a.76.76,0,1,0-1.52,0,.75.75,0,0,0,.64.76A.76.76,0,0,0,315.6,258.88Z"></path><path d="M319.58,267.76a1,1,0,1,1-2,0,1,1,0,0,1,1.14-1A1,1,0,0,1,319.58,267.76Zm0,0a.77.77,0,1,0-.89.76A.78.78,0,0,0,319.58,267.76Z"></path><path d="M323.67,276.15a1,1,0,1,1-.89-1A1,1,0,0,1,323.67,276.15Zm0,0a.77.77,0,0,0-.89-.76.75.75,0,0,0-.63.76.76.76,0,1,0,1.52,0Z"></path><path d="M327.08,284a1,1,0,1,1-.89-1A1,1,0,0,1,327.08,284Zm0,0a.77.77,0,1,0-.89.76A.77.77,0,0,0,327.08,284Z"></path><path d="M330.16,292.05a1,1,0,1,1-2,0,1,1,0,0,1,1.13-1A1,1,0,0,1,330.16,292.05Zm0,0a.77.77,0,1,0-1.53,0,.77.77,0,1,0,1.53,0Z"></path><path d="M333.17,299.89a1,1,0,1,1-.88-1A1,1,0,0,1,333.17,299.89Zm0,0a.76.76,0,1,0-.88.77A.76.76,0,0,0,333.17,299.89Z"></path><path d="M336,307.14a1,1,0,1,1-2,0,1,1,0,1,1,2,0Zm0,0a.76.76,0,0,0-.88-.76.77.77,0,1,0,.88.76Z"></path><path d="M338.38,314.87a1,1,0,1,1-.89-1A1,1,0,0,1,338.38,314.87Zm0,0a.77.77,0,0,0-.89-.76.75.75,0,0,0-.63.76.76.76,0,1,0,1.52,0Z"></path><path d="M305.87,236.24a178.19,178.19,0,0,1,10.93,18.89c3.31,6.49,6.35,13.11,9.24,19.79,1.39,3.37,2.78,6.73,4.07,10.14s2.56,6.81,3.8,10.23,2.37,6.89,3.55,10.33l3.22,10.43-3.45-10.35c-1.22-3.43-2.35-6.89-3.63-10.29s-2.51-6.83-3.88-10.2-2.73-6.74-4.14-10.09c-2.83-6.7-5.82-13.33-9.08-19.84-1.64-3.24-3.31-6.47-5.09-9.64S307.86,239.29,305.87,236.24Z"></path></g><path d="M315.49,335.65c.21,5.1,36,73.09,40.13,75.25s28.83-8.63,31.61-15.57-9.25-44.42-12-51.51S349.61,319,347.91,320.38C333.26,332.67,315.31,331.17,315.49,335.65Z" style="fill:#A254CE"></path><g style="opacity:0.2"><path d="M348,332.16a1,1,0,0,1-.89,1,1,1,0,0,1-1.14-1,1,1,0,0,1,1.14-1A1,1,0,0,1,348,332.16Zm0,0a.78.78,0,0,0-.89-.76.77.77,0,0,0-.64.76.77.77,0,1,0,1.53,0Z"></path><path d="M354.18,337.69a1,1,0,1,1-2,0,1,1,0,1,1,2,0Zm0,0a.76.76,0,1,0-1.52,0,.75.75,0,0,0,.63.76A.77.77,0,0,0,354.18,337.69Z"></path><path d="M360.12,343.13a1,1,0,1,1-.89-1A1,1,0,0,1,360.12,343.13Zm0,0a.77.77,0,0,0-.89-.76.75.75,0,0,0-.63.76.76.76,0,1,0,1.52,0Z"></path><path d="M365,348.89a1,1,0,1,1-.89-1A1,1,0,0,1,365,348.89Zm0,0a.76.76,0,1,0-.89.77A.77.77,0,0,0,365,348.89Z"></path><path d="M368.15,356.91a1,1,0,1,1-.88-1A1,1,0,0,1,368.15,356.91Zm0,0a.76.76,0,1,0-.88.76A.76.76,0,0,0,368.15,356.91Z"></path><path d="M373.16,374a1,1,0,0,1-.88,1,1,1,0,1,1,0-2A1,1,0,0,1,373.16,374Zm0,0a.76.76,0,0,0-.88-.76.78.78,0,0,0-.64.76.76.76,0,1,0,1.52,0Z"></path><path d="M378.61,391.76a1,1,0,1,1-.88-1A1,1,0,0,1,378.61,391.76Zm0,0a.76.76,0,0,0-.88-.76.78.78,0,0,0,0,1.53A.77.77,0,0,0,378.61,391.76Z"></path><path d="M370.67,365.32a1,1,0,1,1-.89-1A1,1,0,0,1,370.67,365.32Zm0,0a.77.77,0,0,0-.89-.76.77.77,0,1,0,.89.76Z"></path><path d="M375.54,382.78a1,1,0,1,1-.89-1A1,1,0,0,1,375.54,382.78Zm0,0a.76.76,0,1,0-.89.77A.77.77,0,0,0,375.54,382.78Z"></path><path d="M347.09,326.75c4.85,4.21,9.64,8.51,14.23,13,1.15,1.14,2.29,2.28,3.37,3.48.55.59,1.08,1.21,1.59,1.84.26.32.48.68.72,1s.38.72.57,1.09a71.45,71.45,0,0,1,3.42,9.07c1.91,6.15,3.58,12.36,5.22,18.59l2.41,9.34c.79,3.11,1.58,6.23,2.44,9.33-1-3.06-1.89-6.15-2.8-9.24L375.65,375c-1.75-6.19-3.41-12.4-5.38-18.51a69.59,69.59,0,0,0-3.31-9c-.18-.35-.34-.71-.54-1.05s-.42-.64-.67-.95c-.49-.62-1-1.23-1.54-1.82-1.07-1.19-2.18-2.35-3.29-3.5-2.25-2.3-4.55-4.55-6.86-6.78S349.43,329,347.09,326.75Z"></path></g><path d="M312.28,332.1c-1.25-4-6.47-20.36-5.75-21.18s4.21-3.29,5.65-1.95,10,16.65,11.93,16.65,16.89-4.09,22.06-11.2c1-1.34,3.95,4.36,3.12,5.88s-9.93,10.44-20.56,13.34c-1.13.31,4.74,20.7,3.7,22.11s-4.6,2.81-5.86,2.26S314.7,339.87,312.28,332.1Z" style="fill:#37474f"></path><path d="M329.54,328.63c3.1,7.79,1.07,15.92-4.54,18.15s-12.66-2.28-15.76-10.08-1.07-15.92,4.53-18.15S326.44,320.83,329.54,328.63Z" style="fill:#455a64"></path><path d="M355.62,410.9c-4.07.13-1.21,6,6.72,5.43,12-.82,27.87-12.68,28.38-16.79s-2.84-7.06-3.16-5.64S370.16,410.44,355.62,410.9Z" style="fill:#37474f"></path><path d="M248.65,195.72c.4,2.19,4.18,19.5,6.21,21.1s9.83,3.62,15.51,3.63c7.54,0,17.15-4.24,20.61-7.78s5.19-28.65,3.95-29.45-24.65-1-33.07,1.86S248.29,193.74,248.65,195.72Z" style="fill:#37474f"></path><path d="M254.86,215.79a68,68,0,0,0,9.07,2.39,27,27,0,0,0,9.3.36,42.3,42.3,0,0,0,9-2.6,82,82,0,0,0,8.48-4,64.6,64.6,0,0,1-8.42,4.17,42,42,0,0,1-9,2.7,27.08,27.08,0,0,1-9.37-.45A55.71,55.71,0,0,1,254.86,215.79Z" style="fill:#263238"></path><path d="M254.1,213.44a70.32,70.32,0,0,0,9.45,2.5,28.27,28.27,0,0,0,9.7.38,44.39,44.39,0,0,0,9.36-2.72,85,85,0,0,0,8.84-4.19,67.55,67.55,0,0,1-8.78,4.34,44.27,44.27,0,0,1-9.38,2.81,28.39,28.39,0,0,1-9.77-.46A59.11,59.11,0,0,1,254.1,213.44Z" style="fill:#263238"></path><path d="M253.43,211.24a73.85,73.85,0,0,0,9.79,2.58,29,29,0,0,0,10,.4A45.58,45.58,0,0,0,283,211.4a86.1,86.1,0,0,0,9.16-4.34,71.75,71.75,0,0,1-9.09,4.5,46.49,46.49,0,0,1-9.72,2.91,29.67,29.67,0,0,1-10.12-.48A62.33,62.33,0,0,1,253.43,211.24Z" style="fill:#263238"></path><path d="M253.43,209.13a72.38,72.38,0,0,0,9.79,2.59,29.29,29.29,0,0,0,10,.39A45.55,45.55,0,0,0,283,209.3a88.09,88.09,0,0,0,9.16-4.34,73.05,73.05,0,0,1-9.09,4.49,45.9,45.9,0,0,1-9.72,2.91,29.18,29.18,0,0,1-10.12-.48A61.26,61.26,0,0,1,253.43,209.13Z" style="fill:#263238"></path><path d="M252.75,206.79a77.08,77.08,0,0,0,10.13,2.68,30.63,30.63,0,0,0,10.41.41,47.61,47.61,0,0,0,10-2.92,90.23,90.23,0,0,0,9.48-4.5,73.41,73.41,0,0,1-9.41,4.65,47.09,47.09,0,0,1-10.07,3,30.21,30.21,0,0,1-10.47-.49A65.26,65.26,0,0,1,252.75,206.79Z" style="fill:#263238"></path><path d="M251.83,204.25a76.57,76.57,0,0,0,10.4,2.75,31,31,0,0,0,10.69.43,48.48,48.48,0,0,0,10.31-3,93,93,0,0,0,9.73-4.62,75.45,75.45,0,0,1-9.67,4.77A48.37,48.37,0,0,1,273,207.67a31.39,31.39,0,0,1-10.76-.5A66.54,66.54,0,0,1,251.83,204.25Z" style="fill:#263238"></path><path d="M251,201.82a80.63,80.63,0,0,0,10.8,2.86,32.13,32.13,0,0,0,11.1.44,50.63,50.63,0,0,0,10.7-3.11,97.29,97.29,0,0,0,10.11-4.8,79.92,79.92,0,0,1-10,4.95A50.39,50.39,0,0,1,273,205.37a32.52,32.52,0,0,1-11.17-.53A69.12,69.12,0,0,1,251,201.82Z" style="fill:#263238"></path><path d="M250.45,199.46a83.75,83.75,0,0,0,11.11,2.94,32.82,32.82,0,0,0,11.39.45,51.12,51.12,0,0,0,11-3.2,95.59,95.59,0,0,0,10.38-4.93A82.35,82.35,0,0,1,284,199.81a52,52,0,0,1-11,3.29,33.26,33.26,0,0,1-11.47-.54A71.06,71.06,0,0,1,250.45,199.46Z" style="fill:#263238"></path><path d="M250.45,196.88a83.75,83.75,0,0,0,11.11,2.94,32.82,32.82,0,0,0,11.39.45,51.67,51.67,0,0,0,11-3.19,97.57,97.57,0,0,0,10.38-4.94A82.35,82.35,0,0,1,284,197.23a52,52,0,0,1-11,3.29,33.26,33.26,0,0,1-11.47-.54A71.06,71.06,0,0,1,250.45,196.88Z" style="fill:#263238"></path><path d="M250.45,194.3a82.24,82.24,0,0,0,11.11,2.94,33.07,33.07,0,0,0,11.39.46,52.29,52.29,0,0,0,11-3.2,97.57,97.57,0,0,0,10.38-4.94A82.35,82.35,0,0,1,284,194.65a51.42,51.42,0,0,1-11,3.29,33.26,33.26,0,0,1-11.47-.54A71.06,71.06,0,0,1,250.45,194.3Z" style="fill:#263238"></path><path d="M250.45,191.72a82.24,82.24,0,0,0,11.11,2.94,33.07,33.07,0,0,0,11.39.46,52.29,52.29,0,0,0,11-3.2A97.57,97.57,0,0,0,294.33,187,82.35,82.35,0,0,1,284,192.07a51.42,51.42,0,0,1-11,3.29,33.51,33.51,0,0,1-11.47-.53A71.1,71.1,0,0,1,250.45,191.72Z" style="fill:#263238"></path><path d="M250.45,189.14a80.79,80.79,0,0,0,11.11,2.94,33.07,33.07,0,0,0,11.39.46,52.29,52.29,0,0,0,11-3.2,97.57,97.57,0,0,0,10.38-4.94A81,81,0,0,1,284,189.49a51.42,51.42,0,0,1-11,3.29,33.26,33.26,0,0,1-11.47-.53A71.1,71.1,0,0,1,250.45,189.14Z" style="fill:#263238"></path><path d="M253.44,144.17c-4.2-1-8.69,3.18-10.73,7.22-3.13,6.21-3,22,1.38,22.52S258.58,145.37,253.44,144.17Z" style="fill:#37474f"></path><path d="M267.73,136.31c-9.08,1.66-20.34,9.3-22.47,19.94s1,51.81,7.22,51.81c5,0,3.75-15.54,10.06-17.72,7.44-2.56,14,20.13,27.07,15.69,11.14-3.76,10.81-47.46,4-60.49C289.59,137.88,277.49,134.52,267.73,136.31Z" style="fill:#A254CE"></path><g style="opacity:0.2"><path d="M289.81,168.77a1,1,0,0,1-1.2.61,1,1,0,1,1,.76-1.88A1,1,0,0,1,289.81,168.77Zm0,0a.76.76,0,1,0-1.11.38A.77.77,0,0,0,289.81,168.77Z"></path><path d="M289.65,177.41a1,1,0,0,1-1.2.6,1,1,0,1,1,1.2-.6Zm0,0a.76.76,0,1,0-1.41-.57.76.76,0,0,0,.3.94A.77.77,0,0,0,289.65,177.41Z"></path><path d="M289.52,185.81a1,1,0,1,1-.45-1.27A1,1,0,0,1,289.52,185.81Zm0,0a.77.77,0,1,0-1.42-.57.77.77,0,1,0,1.42.57Z"></path><path d="M289.41,193.58a1,1,0,1,1-.45-1.27A1,1,0,0,1,289.41,193.58Zm0,0A.77.77,0,1,0,288,193a.77.77,0,1,0,1.42.57Z"></path><path d="M288.75,201.64a1,1,0,1,1-.44-1.27A1,1,0,0,1,288.75,201.64Zm0,0a.76.76,0,1,0-1.11.38A.77.77,0,0,0,288.75,201.64Z"></path><path d="M291.89,166.2a72.4,72.4,0,0,1,.46,9.54c0,3.19-.14,6.38-.32,9.56s-.46,6.35-.78,9.52l-.52,4.75-.63,4.74.77-9.52c.24-3.17.5-6.34.66-9.52s.34-6.35.44-9.53c0-1.59.07-3.18.07-4.77S292,167.79,291.89,166.2Z"></path></g><path d="M287.56,141.45c4.19-1,8.69,3.19,10.72,7.22,3.14,6.21,3,22-1.38,22.52S282.41,142.65,287.56,141.45Z" style="fill:#37474f"></path><path d="M254.6,162.51c-.45,5.6,2.75,10.43,7.14,10.78s8.31-3.91,8.75-9.52-2.75-10.43-7.14-10.78S255,156.9,254.6,162.51Z" style="fill:#37474f"></path><path d="M255.2,162.52c-.38,4.73,2.31,8.8,6,9.09s7-3.3,7.38-8-2.32-8.8-6-9.1S255.57,157.79,255.2,162.52Z" style="fill:#A254CE"></path><path d="M263.7,146.26c3.55.6,9.94-5.63,12-10.12.14-.31-.52-3.41-1.15-7.21-.37-2.31-.72-4.89-.88-7.27,0-.49-1.63.52-1.63.52l-3,.94-10,3.15a38,38,0,0,1,2,9,4.61,4.61,0,0,1,0,1s0,.1,0,.16C260.83,138.32,260.27,145.68,263.7,146.26Z" style="fill:#A254CE"></path><path d="M261,136.29s0,.1,0,.16a10,10,0,0,0,1.54,0c10-.89,10.45-13.74,10.45-13.74l-4,.43-10,3.15a38,38,0,0,1,2,9A4.61,4.61,0,0,1,261,136.29Z" style="fill:#263238"></path><path d="M277.26,107.18c1,5.45-3.61,20.33-7.76,23.27-6,4.27-14.95,3.68-18.35-3.34-3.3-6.8,3-26.08,7.57-28.67C265.42,94.64,275.81,99.12,277.26,107.18Z" style="fill:#A254CE"></path><path d="M262.78,114.34c1.66.28,1,3.59-.57,3.33S261.38,114.1,262.78,114.34Z" style="fill:#263238"></path><path d="M254.7,112.36c-1.63-.47-2.45,2.82-.94,3.25S256.06,112.76,254.7,112.36Z" style="fill:#263238"></path><rect x="258.67" y="106.27" width="1" height="11.62" transform="translate(87.95 336.61) rotate(-76.06)" style="fill:#263238"></rect><path d="M255.05,119.29a5.7,5.7,0,0,1,2.15.15,5.59,5.59,0,0,1,2,.88,5.7,5.7,0,0,1-2.15-.15A5.44,5.44,0,0,1,255.05,119.29Z" style="fill:#263238"></path><path d="M264.34,106.76l-8.11-2.29s1.7-7.27,7.51-8c5.45-.65,9.08,3.58,9.08,3.58s-3.31-1.47-5.58.52C265.25,102.35,264.34,106.76,264.34,106.76Z" style="fill:#455a64"></path><path d="M278,120.51c-.86,3.3-3.65,5.42-6.23,4.75s-4-3.89-3.12-7.19,3.65-5.42,6.23-4.75S278.88,117.21,278,120.51Z" style="fill:#37474f"></path><path d="M277.93,120.49c-.72,2.78-3.07,4.57-5.25,4s-3.35-3.29-2.63-6.07,3.08-4.57,5.25-4S278.66,117.71,277.93,120.49Z" style="fill:#A254CE"></path><path d="M261,136.45c-1.23,1.69-2.9,10,2.34,11.25,6.24,1.54,12.4-6.94,13.06-10.43.46-2.47-.9-3.07-.9-3.07-2.17,5.32-6.38,12.1-11.7,11.18C260.46,144.79,261,136.45,261,136.45Z" style="fill:#37474f"></path><path d="M353.27,185c6.94,5.8,13.75,44.53,9,49.45s-26.44,5.74-30.61,1.13S325,202.46,326,197.41,345.87,178.79,353.27,185Z" style="fill:#A254CE"></path><g style="opacity:0.2"><path d="M351.84,199.77a1,1,0,0,1-1.07.83,1,1,0,1,1,1.07-.83Zm0,0a.76.76,0,1,0-1.5-.29.76.76,0,1,0,1.5.29Z"></path><path d="M353.34,208.28a1,1,0,1,1-.68-1.16A1,1,0,0,1,353.34,208.28Zm0,0a.77.77,0,0,0-.72-.92.77.77,0,1,0,.72.92Z"></path><path d="M354.83,216.55a1,1,0,0,1-1.06.82,1,1,0,1,1,.38-2A1,1,0,0,1,354.83,216.55Zm0,0a.76.76,0,1,0-1,.58A.78.78,0,0,0,354.83,216.55Z"></path><path d="M356.22,224.19a1,1,0,0,1-1.06.83,1,1,0,1,1,1.06-.83Zm0,0a.77.77,0,0,0-.73-.91.78.78,0,0,0-.77.62.76.76,0,1,0,1.5.29Z"></path><path d="M353.77,200.49a38.75,38.75,0,0,1,2.08,6.75c.52,2.31.9,4.64,1.23,7s.53,4.69.7,7l.18,3.53.06,3.53-.63-7c-.25-2.34-.47-4.68-.81-7s-.67-4.65-1.11-7c-.21-1.15-.46-2.3-.74-3.44A31.08,31.08,0,0,0,353.77,200.49Z"></path></g><path d="M327.68,192.9c5.56.48,24.59-12.34,24.42-18.59s-53.45-32-61-31c-4,.51,1.13,15.69,4.89,23.17C297.78,170,316.23,191.91,327.68,192.9Z" style="fill:#A254CE"></path><g style="opacity:0.2"><path d="M293.36,149.72a1,1,0,1,1-1.34-.2A1,1,0,0,1,293.36,149.72Zm0,0a.77.77,0,1,0-.19,1.16A.78.78,0,0,0,293.36,149.72Z"></path><path d="M302.12,153.93a1,1,0,1,1-1.33-.2A1,1,0,0,1,302.12,153.93Zm0,0a.76.76,0,1,0-1.16,1,.76.76,0,1,0,1.16-1Z"></path><path d="M310.67,157.69a1,1,0,1,1-1.34-.2A1,1,0,0,1,310.67,157.69Zm0,0a.77.77,0,1,0-.19,1.16A.78.78,0,0,0,310.67,157.69Z"></path><path d="M318.33,161.47a1,1,0,1,1-1.33-.2A1,1,0,0,1,318.33,161.47Zm0,0a.77.77,0,1,0-.19,1.16A.78.78,0,0,0,318.33,161.47Z"></path><path d="M325.89,165.65a1,1,0,1,1-1.33-.2A1,1,0,0,1,325.89,165.65Zm0,0a.76.76,0,1,0-.18,1.15A.77.77,0,0,0,325.89,165.65Z"></path><path d="M333.26,169.69a1,1,0,0,1-1.55,1.31,1,1,0,1,1,1.55-1.31Zm0,0a.76.76,0,1,0-.19,1.15A.77.77,0,0,0,333.26,169.69Z"></path><path d="M292.18,146q5.54,2.15,11,4.51c3.62,1.57,7.22,3.21,10.8,4.88s7.12,3.44,10.6,5.29,6.94,3.8,10.27,5.92c-3.43-2-6.93-3.78-10.44-5.57s-7.07-3.51-10.64-5.19-7.16-3.33-10.75-5S295.79,147.55,292.18,146Z"></path></g><path d="M357.58,179.83c3.78,10.37,3.56,22.36,2.95,23.07s-4.68.11-5.91-1-4.28-13.54-6-13.54-16,3.34-22.89,10c-1,1-2.58-5-1.87-6.33S336,183.43,345.15,181c1-.26-8.5-13-8.84-14.43-.48-2.07,2.05-4.32,3.12-3.85S353.67,169.13,357.58,179.83Z" style="fill:#37474f"></path><path d="M342,185.93c-2.64-6.68-.89-13.64,3.92-15.54s10.84,2,13.48,8.65.89,13.64-3.91,15.54S344.61,192.61,342,185.93Z" style="fill:#455a64"></path><path d="M362.53,232.38c-1.1-3.76-9.25-4.88-15.79-3.5s-14.69,5.06-14.88,8.54c-.13,2.43,4,6.14,16.55,4.35S363.08,234.23,362.53,232.38Z" style="fill:#37474f"></path><path d="M358.77,232.48c-3.9-2.75-21.39,3.33-23.73,7.86-.78,1.51,2.44,27.59,6.49,29.1s30.74-11.24,30-16.49S360.81,233.92,358.77,232.48Z" style="fill:#A254CE"></path><path d="M351.51,265.11c-.61-1.67-4-2.42-6.94-1.49-4.08,1.3-5.53,3.37-5.39,4.91.09,1.08,2.77,3.19,7.54,1.69C350.57,269,352,266.44,351.51,265.11Z" style="fill:#37474f"></path><path d="M340,269.34c.83,3.39,4.41,12.75,5.75,13.36,3.86,1.76,7.54-1.49,7.59-3.47,0-1.17-.75-12.25-3.1-13.5C346.65,263.84,339.46,267.22,340,269.34Z" style="fill:#A254CE"></path><path d="M353.64,279.35c-.9-1.38-3.55-1.2-5.66-.28-2.76,1.21-3.35,3.38-2.51,4.54.55.75,2.92,1.58,5.48-.1C352.81,282.29,354.36,280.44,353.64,279.35Z" style="fill:#37474f"></path><path d="M353.42,281c2.51,2.08,7.55,7.19,8.45,11.09.6,2.59-1.27,3.35-3.07,2.62s-12.53-8.31-13.1-11S351.37,279.25,353.42,281Z" style="fill:#A254CE"></path><path d="M360.47,261c-.67-1.66-4.11-2.29-7-1.26-4,1.44-5.42,3.55-5.22,5.09.13,1.08,2.88,3.1,7.59,1.43C359.66,264.91,361,262.3,360.47,261Z" style="fill:#37474f"></path><path d="M349.08,265.6c.95,3.37,4.84,12.59,6.21,13.16,3.91,1.63,7.48-1.74,7.47-3.73,0-1.16-1.17-12.21-3.56-13.38C355.57,259.88,348.49,263.5,349.08,265.6Z" style="fill:#A254CE"></path><path d="M363.08,275.14c-.94-1.34-3.6-1.08-5.67-.08-2.72,1.3-3.23,3.49-2.35,4.62.57.73,3,1.48,5.47-.28C362.35,278.11,363.83,276.21,363.08,275.14Z" style="fill:#37474f"></path><path d="M362.91,276.75c2.58,2,7.79,6.94,8.82,10.8.69,2.57-1.16,3.39-3,2.72s-12.8-7.88-13.46-10.57S360.8,275.12,362.91,276.75Z" style="fill:#A254CE"></path><path d="M367.26,255.18c-1-1.43-4.32-1.33-6.83.22-3.51,2.16-4.39,4.43-3.9,5.84.34,1,3.34,2.34,7.45-.17C367.29,259,368,256.3,367.26,255.18Z" style="fill:#37474f"></path><path d="M357.47,261.81c1.57,3,7.09,10.89,8.48,11.15,4,.75,6.7-3.14,6.29-5-.23-1.1-3.55-11.27-6-11.89C362.43,255.12,356.49,260,357.47,261.81Z" style="fill:#A254CE"></path><path d="M372.57,268c-1.16-1.08-3.6-.3-5.36,1.06-2.3,1.77-2.34,3.94-1.28,4.83.68.57,3.09.79,5.09-1.37C372.48,270.93,373.5,268.84,372.57,268Z" style="fill:#37474f"></path><path d="M372.74,269.54c2.82,1.36,8.72,5,10.47,8.4,1.17,2.28-.41,3.42-2.26,3.16s-13.65-4.85-14.8-7.25S370.42,268.42,372.74,269.54Z" style="fill:#A254CE"></path><path d="M372.18,249c-1.21-1-4.18-.1-6,1.89-2.58,2.8-2.8,5-2,6.17.55.79,3.55,1.25,6.57-2C373.16,252.39,373.14,249.78,372.18,249Z" style="fill:#37474f"></path><path d="M365.12,257.3c2.14,2.26,9,7.92,10.32,7.81,3.75-.34,5.17-4.46,4.34-6-.48-.92-6-9.14-8.33-9.07C367.86,250.12,363.78,255.89,365.12,257.3Z" style="fill:#A254CE"></path><path d="M378.72,257.39c-1.42-.36-3.06,1.34-3.89,3.21-1.09,2.45-.17,4.23,1.07,4.49.81.17,2.87-.72,3.54-3.35C379.94,259.82,379.84,257.68,378.72,257.39Z" style="fill:#37474f"></path><path d="M379.53,258.58c2.9-.14,9.27.2,12.2,2.22,1.95,1.35,1.17,3-.45,3.56s-13.22,2.05-15.21.61S377.16,258.69,379.53,258.58Z" style="fill:#A254CE"></path><path d="M112.76,92.56a16.9,16.9,0,0,1-.5-4.33,16.37,16.37,0,0,1,.5-4.33,19,19,0,0,1,0,8.66Z" style="fill:#263238"></path><path d="M105.09,96A18.9,18.9,0,0,1,99,89.84,19.16,19.16,0,0,1,105.09,96Z" style="fill:#263238"></path><path d="M102.07,103.8a19,19,0,0,1-8.66,0,19,19,0,0,1,8.66,0Z" style="fill:#263238"></path><path d="M105.48,111.47a19.16,19.16,0,0,1-6.12,6.12,17,17,0,0,1,2.7-3.42A17.4,17.4,0,0,1,105.48,111.47Z" style="fill:#263238"></path><path d="M113.31,114.48a17.35,17.35,0,0,1,.5,4.33,16.42,16.42,0,0,1-.5,4.33,16.85,16.85,0,0,1-.5-4.33A17.35,17.35,0,0,1,113.31,114.48Z" style="fill:#263238"></path><path d="M121,111.08a17.4,17.4,0,0,1,3.42,2.7,16.76,16.76,0,0,1,2.7,3.42,19.16,19.16,0,0,1-6.12-6.12Z" style="fill:#263238"></path><path d="M124,103.24a19,19,0,0,1,8.65,0,19,19,0,0,1-8.65,0Z" style="fill:#263238"></path><path d="M120.59,95.57a19.16,19.16,0,0,1,6.12-6.12,16.7,16.7,0,0,1-2.7,3.41A17.08,17.08,0,0,1,120.59,95.57Z" style="fill:#263238"></path></g><g id="freepik--chart-3--inject-26"><polygon points="335.62 151.43 349.32 151.29 363.03 151.25 390.43 151.16 417.83 151.25 431.54 151.29 445.24 151.43 431.54 151.56 417.83 151.61 390.43 151.7 363.03 151.61 349.32 151.56 335.62 151.43" style="fill:#c7c7c7"></polygon><polygon points="335.62 143.85 349.32 143.72 363.03 143.67 390.43 143.57 417.83 143.67 431.54 143.71 445.24 143.85 431.54 143.98 417.83 144.03 390.43 144.12 363.03 144.03 349.32 143.98 335.62 143.85" style="fill:#c7c7c7"></polygon><polygon points="335.62 136.27 349.32 136.13 363.03 136.09 390.43 136 417.83 136.09 431.54 136.13 445.24 136.27 431.54 136.4 417.83 136.45 390.43 136.54 363.03 136.45 349.32 136.4 335.62 136.27" style="fill:#c7c7c7"></polygon><polygon points="335.62 128.69 349.32 128.56 363.03 128.51 390.43 128.42 417.83 128.51 431.54 128.55 445.24 128.69 431.54 128.82 417.83 128.87 390.43 128.96 363.03 128.87 349.32 128.82 335.62 128.69" style="fill:#c7c7c7"></polygon><polygon points="335.62 121.11 349.32 120.98 363.03 120.93 390.43 120.84 417.83 120.93 431.54 120.97 445.24 121.11 431.54 121.24 417.83 121.29 390.43 121.38 363.03 121.29 349.32 121.24 335.62 121.11" style="fill:#c7c7c7"></polygon><polygon points="335.62 113.53 349.32 113.4 363.03 113.35 390.43 113.26 417.83 113.35 431.54 113.39 445.24 113.53 431.54 113.66 417.83 113.71 390.43 113.8 363.03 113.71 349.32 113.66 335.62 113.53" style="fill:#c7c7c7"></polygon><polygon points="335.62 105.95 349.32 105.82 363.03 105.77 390.43 105.68 417.83 105.77 431.54 105.81 445.24 105.95 431.54 106.08 417.83 106.13 390.43 106.22 363.03 106.13 349.32 106.08 335.62 105.95" style="fill:#c7c7c7"></polygon><polygon points="335.62 98.37 349.32 98.24 363.03 98.19 390.43 98.1 417.83 98.19 431.54 98.23 445.24 98.37 431.54 98.5 417.83 98.55 390.43 98.64 363.03 98.55 349.32 98.5 335.62 98.37" style="fill:#c7c7c7"></polygon><polygon points="335.62 90.79 349.32 90.66 363.03 90.61 390.43 90.52 417.83 90.61 431.54 90.66 445.24 90.79 431.54 90.92 417.83 90.97 390.43 91.06 363.03 90.97 349.32 90.92 335.62 90.79" style="fill:#c7c7c7"></polygon><polygon points="340.78 148.54 340.54 147.48 354.7 144.26 368.38 130.85 373.85 134.49 384.7 123.65 390.68 127.23 394.58 123.96 405.37 135.35 419.58 118.27 431.44 130.89 445.01 124.68 445.47 125.67 431.18 132.2 419.63 119.92 405.43 136.99 394.49 125.46 390.78 128.56 384.87 125.02 373.99 135.89 368.51 132.25 355.25 145.25 340.78 148.54" style="fill:#455a64"></polygon><path d="M356.43,144.63A1.44,1.44,0,1,1,355,143.2,1.43,1.43,0,0,1,356.43,144.63Z" style="fill:#455a64"></path><path d="M369.74,131.66a1.44,1.44,0,1,1-1.44-1.44A1.44,1.44,0,0,1,369.74,131.66Z" style="fill:#455a64"></path><path d="M386.34,124.45A1.44,1.44,0,1,1,384.9,123,1.44,1.44,0,0,1,386.34,124.45Z" style="fill:#455a64"></path><path d="M392.17,128a1.44,1.44,0,1,1-1.43-1.43A1.43,1.43,0,0,1,392.17,128Z" style="fill:#455a64"></path><path d="M396,124.82a1.44,1.44,0,1,1-1.44-1.44A1.44,1.44,0,0,1,396,124.82Z" style="fill:#455a64"></path><path d="M420.91,119.1a1.44,1.44,0,1,1-1.43-1.44A1.43,1.43,0,0,1,420.91,119.1Z" style="fill:#455a64"></path><path d="M433,131.34a1.44,1.44,0,1,1-1.44-1.44A1.45,1.45,0,0,1,433,131.34Z" style="fill:#455a64"></path><path d="M446.68,125.38a1.44,1.44,0,1,1-1.44-1.44A1.44,1.44,0,0,1,446.68,125.38Z" style="fill:#455a64"></path><path d="M406.8,136.06a1.44,1.44,0,1,1-1.43-1.44A1.44,1.44,0,0,1,406.8,136.06Z" style="fill:#455a64"></path><polygon points="341.06 148.28 340.25 147.55 355.51 130.87 361.65 134.1 377.87 117.61 382.36 121.28 390 114.71 404.57 125.2 407.82 121.5 416.09 129.12 428.19 118.37 436 125.05 445.1 122.59 445.38 123.65 435.72 126.25 428.21 119.82 416.07 130.59 407.9 123.06 404.74 126.66 390.06 116.09 382.38 122.71 377.95 119.08 361.86 135.44 355.75 132.22 341.06 148.28" style="fill:#263238"></polygon><path d="M357,131.82a1.44,1.44,0,1,1-1.44-1.44A1.43,1.43,0,0,1,357,131.82Z" style="fill:#263238"></path><path d="M363.11,134.69a1.44,1.44,0,1,1-1.44-1.44A1.44,1.44,0,0,1,363.11,134.69Z" style="fill:#263238"></path><path d="M379.16,118.45a1.44,1.44,0,1,1-1.44-1.44A1.44,1.44,0,0,1,379.16,118.45Z" style="fill:#263238"></path><circle cx="382.54" cy="121.95" r="1.44" style="fill:#263238"></circle><path d="M391.48,115.4A1.44,1.44,0,1,1,390,114,1.44,1.44,0,0,1,391.48,115.4Z" style="fill:#263238"></path><path d="M406,125.89a1.44,1.44,0,1,1-1.43-1.44A1.43,1.43,0,0,1,406,125.89Z" style="fill:#263238"></path><path d="M409.12,122.32a1.44,1.44,0,1,1-1.43-1.43A1.43,1.43,0,0,1,409.12,122.32Z" style="fill:#263238"></path><path d="M417.34,129.9a1.44,1.44,0,1,1-1.44-1.43A1.43,1.43,0,0,1,417.34,129.9Z" style="fill:#263238"></path><path d="M429.73,119.45a1.44,1.44,0,1,1-1.44-1.43A1.43,1.43,0,0,1,429.73,119.45Z" style="fill:#263238"></path><path d="M437.36,125.67a1.44,1.44,0,1,1-1.43-1.43A1.43,1.43,0,0,1,437.36,125.67Z" style="fill:#263238"></path><path d="M446.68,123a1.44,1.44,0,1,1-1.44-1.43A1.44,1.44,0,0,1,446.68,123Z" style="fill:#263238"></path><polygon points="341.26 148.07 340.72 147.13 359.22 136.51 369.12 140.97 374.55 139.14 380.21 142.64 391.97 134 396.7 137.82 401.66 136.34 409.79 140.94 422.64 134.8 430.76 140.87 444.92 130.69 445.56 131.57 430.75 142.23 422.52 136.07 409.74 142.16 401.53 137.52 396.46 139.03 391.94 135.37 380.26 143.95 374.41 140.34 369.06 142.13 359.28 137.73 341.26 148.07" style="fill:#A254CE"></polygon><path d="M360.68,137.12a1.44,1.44,0,1,1-1.43-1.44A1.43,1.43,0,0,1,360.68,137.12Z" style="fill:#A254CE"></path><path d="M370.53,141.5a1.44,1.44,0,1,1-1.44-1.44A1.45,1.45,0,0,1,370.53,141.5Z" style="fill:#A254CE"></path><path d="M375.93,140a1.44,1.44,0,1,1-1.44-1.44A1.44,1.44,0,0,1,375.93,140Z" style="fill:#A254CE"></path><path d="M381.75,143.2a1.44,1.44,0,1,1-1.44-1.44A1.44,1.44,0,0,1,381.75,143.2Z" style="fill:#A254CE"></path><path d="M398,138.22a1.44,1.44,0,1,1-1.43-1.43A1.43,1.43,0,0,1,398,138.22Z" style="fill:#A254CE"></path><path d="M411.14,141.43A1.44,1.44,0,1,1,409.7,140,1.43,1.43,0,0,1,411.14,141.43Z" style="fill:#A254CE"></path><path d="M432.4,141.43A1.44,1.44,0,1,1,431,140,1.43,1.43,0,0,1,432.4,141.43Z" style="fill:#A254CE"></path><path d="M393.3,134.62a1.44,1.44,0,1,1-1.43-1.43A1.43,1.43,0,0,1,393.3,134.62Z" style="fill:#A254CE"></path><path d="M403.13,137.12a1.44,1.44,0,1,1-1.44-1.44A1.43,1.43,0,0,1,403.13,137.12Z" style="fill:#A254CE"></path><path d="M423.9,135.35a1.44,1.44,0,1,1-1.44-1.43A1.44,1.44,0,0,1,423.9,135.35Z" style="fill:#A254CE"></path><path d="M446.68,131.13a1.44,1.44,0,1,1-1.44-1.43A1.44,1.44,0,0,1,446.68,131.13Z" style="fill:#A254CE"></path><polygon points="339.46 87.24 339.57 105.13 339.62 123.01 339.7 158.79 339.46 158.55 365.55 158.54 391.63 158.59 417.72 158.65 443.8 158.79 417.72 158.93 391.63 158.99 365.55 159.04 339.46 159.03 339.22 159.03 339.22 158.79 339.3 123.01 339.35 105.13 339.46 87.24" style="fill:#c7c7c7"></polygon></g><g id="freepik--chart-2--inject-26"><rect x="210.6" y="211.69" width="13.07" height="84.73" transform="translate(434.28 508.1) rotate(180)" style="fill:#ebebeb"></rect><rect x="210.6" y="232.04" width="13.07" height="64.37" transform="translate(434.28 528.46) rotate(180)" style="fill:#A254CE"></rect><rect x="190.95" y="211.69" width="13.07" height="84.73" transform="translate(394.97 508.1) rotate(180)" style="fill:#ebebeb"></rect><rect x="190.95" y="240.63" width="13.07" height="55.79" transform="translate(394.97 537.04) rotate(180)" style="fill:#455a64"></rect><rect x="171.3" y="211.69" width="13.07" height="84.73" transform="translate(355.66 508.1) rotate(180)" style="fill:#ebebeb"></rect><rect x="171.3" y="270.64" width="13.07" height="25.78" transform="translate(355.66 567.05) rotate(180)" style="fill:#A254CE"></rect><rect x="151.64" y="211.69" width="13.07" height="84.73" transform="translate(316.35 508.1) rotate(180)" style="fill:#ebebeb"></rect><rect x="151.64" y="225.69" width="13.07" height="70.73" transform="translate(316.35 522.11) rotate(180)" style="fill:#455a64"></rect><rect x="131.99" y="211.69" width="13.07" height="84.73" transform="translate(277.05 508.1) rotate(180)" style="fill:#ebebeb"></rect><rect x="131.99" y="220.09" width="13.07" height="76.33" transform="translate(277.05 516.51) rotate(180)" style="fill:#A254CE"></rect><rect x="112.34" y="211.69" width="13.07" height="84.73" transform="translate(237.74 508.1) rotate(180)" style="fill:#ebebeb"></rect><rect x="112.34" y="248.06" width="13.07" height="48.36" transform="translate(237.74 544.47) rotate(180)" style="fill:#455a64"></rect><polygon points="103.63 211.69 103.83 232.87 103.96 254.05 104.09 296.42 103.63 295.96 135.82 295.94 168 295.99 200.19 296.14 232.38 296.42 200.19 296.69 168 296.85 135.82 296.9 103.63 296.88 103.17 296.88 103.17 296.42 103.31 254.05 103.44 232.87 103.63 211.69" style="fill:#ebebeb"></polygon><path d="M101.74,211.69a7.73,7.73,0,0,1,3.9,0,7.73,7.73,0,0,1-3.9,0Z" style="fill:#ebebeb"></path><path d="M101.74,220.09a7.73,7.73,0,0,1,3.9,0,6.87,6.87,0,0,1-2,.25A7.25,7.25,0,0,1,101.74,220.09Z" style="fill:#ebebeb"></path><path d="M101.74,228.49a7.73,7.73,0,0,1,3.9,0,7.73,7.73,0,0,1-3.9,0Z" style="fill:#ebebeb"></path><path d="M101.74,236.89a7.73,7.73,0,0,1,3.9,0,7.73,7.73,0,0,1-3.9,0Z" style="fill:#ebebeb"></path><path d="M101.74,245.29a7.73,7.73,0,0,1,3.9,0,7.73,7.73,0,0,1-3.9,0Z" style="fill:#ebebeb"></path><path d="M101.74,253.7a6.87,6.87,0,0,1,2-.25,6.53,6.53,0,0,1,2,.25,7.73,7.73,0,0,1-3.9,0Z" style="fill:#ebebeb"></path><path d="M101.74,262.1a7.73,7.73,0,0,1,3.9,0,7.73,7.73,0,0,1-3.9,0Z" style="fill:#ebebeb"></path><path d="M101.74,270.5a7.73,7.73,0,0,1,3.9,0,7.73,7.73,0,0,1-3.9,0Z" style="fill:#ebebeb"></path><path d="M101.74,278.9a7.25,7.25,0,0,1,2-.25,6.87,6.87,0,0,1,2,.25,6.87,6.87,0,0,1-2,.25A7.25,7.25,0,0,1,101.74,278.9Z" style="fill:#ebebeb"></path><path d="M101.74,287.3a7.73,7.73,0,0,1,3.9,0,7.73,7.73,0,0,1-3.9,0Z" style="fill:#ebebeb"></path></g><g id="freepik--chart-1--inject-26"><path d="M50.65,57.48c21.34-.19,42.67-.14,64-.22,21.33.08,42.67,0,64,.22-21.33.19-42.67.14-64,.22C93.32,57.62,72,57.67,50.65,57.48Z" style="fill:#ebebeb"></path><path d="M50.65,75.4c21.34-.19,42.67-.14,64-.22,21.33.08,42.67,0,64,.22-21.33.19-42.67.14-64,.22C93.32,75.54,72,75.59,50.65,75.4Z" style="fill:#ebebeb"></path><path d="M50.65,93.32c21.34-.19,42.67-.14,64-.22,21.33.08,42.67,0,64,.22-21.33.19-42.67.14-64,.22C93.32,93.46,72,93.51,50.65,93.32Z" style="fill:#ebebeb"></path><path d="M50.65,111.24c21.34-.19,42.67-.14,64-.22,21.33.08,42.67,0,64,.22-21.33.19-42.67.14-64,.22C93.32,111.38,72,111.43,50.65,111.24Z" style="fill:#ebebeb"></path><path d="M50.65,129.16c21.34-.19,42.67-.14,64-.22,21.33.08,42.67,0,64,.22-21.33.19-42.67.14-64,.22C93.32,129.3,72,129.35,50.65,129.16Z" style="fill:#ebebeb"></path><path d="M76.42,45.83c.19,16.75.14,33.49.22,50.23-.07,16.75,0,33.49-.22,50.23-.18-16.74-.14-33.48-.21-50.23S76.24,62.58,76.42,45.83Z" style="fill:#ebebeb"></path><path d="M98.56,45.83c.19,16.75.14,33.49.22,50.23-.08,16.75,0,33.49-.22,50.23-.19-16.74-.14-33.48-.22-50.23C98.42,79.32,98.37,62.58,98.56,45.83Z" style="fill:#ebebeb"></path><path d="M120.69,45.83c.19,16.75.14,33.49.22,50.23-.08,16.75,0,33.49-.22,50.23-.19-16.74-.14-33.48-.22-50.23C120.55,79.32,120.51,62.58,120.69,45.83Z" style="fill:#ebebeb"></path><path d="M142.83,45.83c.19,16.75.14,33.49.22,50.23-.08,16.75,0,33.49-.22,50.23-.19-16.74-.14-33.48-.22-50.23C142.69,79.32,142.64,62.58,142.83,45.83Z" style="fill:#ebebeb"></path><path d="M165,45.83c.19,16.75.14,33.49.22,50.23-.08,16.75,0,33.49-.22,50.23-.19-16.74-.14-33.48-.22-50.23C164.82,79.32,164.77,62.58,165,45.83Z" style="fill:#ebebeb"></path><path d="M53.88,116.16c3.91,0,6.24-18.2,11.77-18.2s6.11,13.28,10.77,13.28S80.94,87.91,87.2,87.91,92,97.38,98.56,97.38s4.08-22,10.92-22,4.08,30.28,11.21,30.28c4.52,0,6.26-9.62,11.65-9.62,3.57,0,5.67,4.81,10.34,4.81s5.68-18.49,11.51-18.49S160.68,93.32,165,93.32s5.83-17.92,13.69-17.92v70.89H53.88Z" style="fill:#A254CE;opacity:0.5"></path><path d="M53.88,117v-1.75c1.18,0,2.81-4.25,4-7.36,2-5.33,4.16-10.84,7.77-10.84,3.46,0,5.18,4,6.7,7.6,1.19,2.79,2.42,5.68,4.07,5.68,1.46,0,2.72-5.61,3.65-9.7C81.58,94,83.14,87,87.2,87c3.63,0,5,2.72,6.3,5.12s2.28,4.34,5.06,4.34c2.52,0,3.5-5.13,4.46-10.1,1.12-5.84,2.28-11.87,6.46-11.87s5.21,7.6,6.33,15.65c.91,6.52,2,14.62,4.88,14.62,1.7,0,3.09-2,4.56-4.11,1.79-2.58,3.82-5.5,7.09-5.5,2,0,3.5,1.19,5,2.35s3.16,2.46,5.35,2.46c1.61,0,3.09-4.4,4.27-7.94,1.74-5.19,3.54-10.56,7.24-10.56s5.47,3.49,7.06,6.57c1.17,2.25,2.27,4.38,3.71,4.38,1.23,0,2.63-3.41,3.86-6.41,2.1-5.13,4.72-11.51,9.83-11.51v1.75c-3.94,0-6.21,5.54-8.21,10.42-1.71,4.19-3.07,7.5-5.48,7.5s-3.85-2.59-5.26-5.32-2.91-5.62-5.51-5.62c-2.44,0-4.1,5-5.58,9.36-1.64,4.9-3.06,9.13-5.93,9.13s-4.72-1.5-6.43-2.83c-1.36-1.06-2.54-2-3.91-2-2.35,0-4,2.41-5.65,4.75s-3.38,4.86-6,4.86c-4.36,0-5.46-7.83-6.61-16.12-.88-6.31-2-14.15-4.6-14.15s-3.8,5.55-4.74,10.45c-1.14,5.93-2.22,11.52-6.18,11.52S93.25,95.45,92,93c-1.17-2.24-2.18-4.18-4.75-4.18s-4.19,6.8-5.43,12.27c-1.39,6.18-2.49,11.06-5.35,11.06s-4.2-3.28-5.68-6.75c-1.37-3.21-2.78-6.53-5.09-6.53s-4.47,5.39-6.13,9.72C57.7,113.3,56.27,117,53.88,117Z" style="fill:#A254CE"></path><path d="M53.88,46.92c.14,16.56.26,33.13.27,49.69l.14,49.68-.41-.41,62.38.11,31.2.08,31.19.22-31.19.23-31.2.08-62.38.1h-.41v-.41l.13-49.68C53.61,80.05,53.74,63.48,53.88,46.92Z" style="fill:#ebebeb"></path></g><g id="freepik--Plant--inject-26"><path d="M86.4,338.27a90.82,90.82,0,0,1,2.14-15c1.06-4.46,2.56-9,5.37-12.69,2.56-3.36,6.25-6,10.53-6.56,4.13-.51,8,1.33,11.09,3.93,3.82,3.22,6.75,7.48,9.5,11.62a141.44,141.44,0,0,1,8.2,14.36.14.14,0,1,1-.25.13,89.83,89.83,0,0,0-7.33-12,76,76,0,0,0-8.45-10.23c-2.84-2.77-6.43-5.35-10.54-5.48s-7.85,2.16-10.31,5.3c-2.74,3.52-4.14,7.92-5.19,12.2a90.92,90.92,0,0,0-2.11,14.32C88.24,348,88,358,87.8,367.93q-.19,8.43-.26,16.86c0,2.85-.05,5.7-.07,8.55a51.46,51.46,0,0,1-.33,8.24c-.09.56-1,.5-1.09,0a48.49,48.49,0,0,1-.37-7.81c0-2.7-.08-5.4-.1-8.1,0-5.25-.08-10.5-.06-15.75C85.55,359.36,85.68,348.78,86.4,338.27Z" style="fill:#263238"></path><path d="M100.55,330.8c.53-2.8,1.48-6.46,3.07-8.63,2.87-3.9,6-2.2,3.1,2.12a25.83,25.83,0,0,0-4,10.65s4.82,6.89,10.64,10.28c-.25-2.65-1-6.72-.48-10.65,1.12-8.51,6.26-8,5-1.27-1,5.42-1.44,11.17-1.16,13.67a28.57,28.57,0,0,0,6.22,3c-.34-1-.69-2.17-1.08-3.6-2.07-7.63,3-10,3.18-5.72a59.44,59.44,0,0,0,2,10.82c2.79.94,5.1,1.58,6.52,2.08a23.74,23.74,0,0,1,9.54,6.52,30,30,0,0,0,6.5-8.41c-1.78-1.53-4.59-3.81-8.49-6.56-7.31-5.17-4.77-11.69,1-7.63,4.19,2.92,7.43,8.34,8.9,11.13a45.26,45.26,0,0,0,3.32-15.23c-5.74-5.4-19.95-12.91-15.67-12.91,3.85,0,12.48,5.65,15.64,7.83a39.22,39.22,0,0,0-.49-4.43c-5.41-3.54-23-9.06-20.19-10.65,3.08-1.74,15.35,3.94,19.06,5.74a22.67,22.67,0,0,0-3.25-6.73c-7.48-10-21-13.46-26.84-11.55-4.16,1.35-2.95,11.91-3.84,11.55C102,305.53,94.41,310.29,100.55,330.8Zm41-1.16c1.18-1.43,6.67,2.78,5.08,5.09S140,331.48,141.54,329.64Zm-28.67-9c1.44.92-.69,6.26-2.92,4.64C108.06,323.89,111.41,319.71,112.87,320.63Z" style="fill:#A254CE"></path><path d="M115.06,322.27c.75-1.49,1.54-3,2.4-4.41a25.71,25.71,0,0,1,2.76-4l-.71-.88c-.1-.11.07-.28.17-.16.28.32.55.64.82,1a.24.24,0,0,1,.12.14c1,1.23,2,2.51,2.93,3.81a42.89,42.89,0,0,1,4.86,1.41c1.64.55,3.26,1.12,4.86,1.79.16.07.08.34-.08.27-1.58-.7-3.19-1.37-4.82-1.93s-3.12-.92-4.69-1.37c.51.72,1,1.45,1.49,2.19a57,57,0,0,1,8.58,3.5c2.91,1.38,5.7,3,8.48,4.59.16.09,0,.33-.15.24a92,92,0,0,0-8.43-4.36c-2.69-1.26-5.47-2.3-8.18-3.5,6.82,10.66,10.92,22.95,16.39,34.34.08.16-.17.3-.24.13-1.68-4-3.6-7.88-5.42-11.8-1.63-3.53-3.23-7.07-4.87-10.6-.47-1-1-2.06-1.47-3.09.3,5.69.18,11.48,1.11,17.11,0,.2-.26.23-.28,0-.39-6.08-1.46-12.07-1.42-18.19,0,0,0-.05,0-.07q-1.73-3.5-3.72-6.86c-2.26,5.33-4.64,10.74-5.7,16.46,0,.17-.32.09-.27-.09,1.54-5.73,3-11.47,5.73-16.77a64.84,64.84,0,0,0-4.81-6.93c-.76,1.42-1.73,2.75-2.6,4.11s-1.67,2.65-2.44,4a58.23,58.23,0,0,0-4.28,9c-.06.17-.34.08-.27-.09C112.24,328.26,113.56,325.21,115.06,322.27Z" style="fill:#263238"></path><path d="M61.24,335.22c4.38-4.39,9.47-10.16,16.24-10.15,6.54,0,11.35,5.28,14.11,10.71,2.89,5.67,3.93,12.1,4.74,18.35a224.39,224.39,0,0,1,1.74,22.58c.12,4.19.1,8.38,0,12.57a82.83,82.83,0,0,1-1,12.69c-.13.68-1.21.7-1.25,0-.2-3.53-.06-7.07,0-10.6s0-7-.16-10.44c-.26-7-.77-14-1.6-21-.72-6.1-1.29-12.38-3.12-18.27-1.65-5.32-4.73-11.4-10.13-13.74-7.35-3.19-14.54,2.64-19.35,7.55C61.33,335.53,61.11,335.35,61.24,335.22Z" style="fill:#263238"></path><path d="M38.88,345h0c0,.9.09,1.79.15,2.66a15.84,15.84,0,0,1,7.18-3c6.22-.66,5.82,4.07,1.67,4.27a23.55,23.55,0,0,0-8.53,1.71c1,8.21,3.27,14.81,3.61,14.9a120.4,120.4,0,0,0,16.43-2.08c-1.55-3.29-5.07-7.67-3.28-8s3.76,3.55,4.76,7.73a78.92,78.92,0,0,0,11.95-3.29c-2.74-2.36-7-5.31-5.35-6.57s5,2.9,7,5.91a23.81,23.81,0,0,0,5.16-2.88C75.93,351,67,349.89,68.12,346s9.58,1.52,13.35,8.76c4.43-4.59,5.73-11.09,5.26-16.65-3.86-.45-11.28.36-10.75-2.41s5.91-2.24,10.3-.62a15.43,15.43,0,0,0-2.58-6.11c-4.07-5.22-16.48,1.42-16.48,1.42s1.33-12.48-3.41-14.64c-2.73-1.24-7.54-1.23-12.37,1.62,2.71.22,6,1.08,7.3,3,1.68,2.4-1,3.7-2.66,2.6-1.19-.79-3.41-3.26-7.42-3.58a24.87,24.87,0,0,0-4.48,5c-.46.64-.88,1.32-1.31,2.06a17,17,0,0,1,14.53.27c5.39,2.67,2.38,8.26-2.25,6.08s-9-4.3-13.95-3.07a34.74,34.74,0,0,0-2.36,13.91,24.36,24.36,0,0,1,8-3.82c5.35-1.41,7,1.79,1.09,2.39A23.48,23.48,0,0,0,38.88,345Zm6.51-8.59c-.37-1.73,3.43-2.23,4.06-.82C50,336.83,45.75,338.19,45.39,336.45Zm32.47,9.6c.35-.94,2.89.13,2.66,1.31C80.21,348.94,77.51,347,77.86,346.05Zm-17.93,6.09c1.85-.74,4.74,3.86,2.73,4.91S58.42,352.74,59.93,352.14Z" style="fill:#A254CE"></path><path d="M43.68,364.66c2.79-4.66,5.55-9.35,8.47-13.93q2.06-3.19,4.28-6.27c-.22,0-.45-.11-.66-.15l-1.11-.22c-.86-.15-1.72-.27-2.59-.36s-1.63-.12-2.45-.13a12.63,12.63,0,0,0-2.61.13c-.11,0-.13-.14,0-.13.87,0,1.77-.08,2.64-.1s1.7,0,2.54.06,1.59.13,2.37.25c.44.07.87.14,1.3.23.26,0,.53.09.79.16,1.51-2.07,3.07-4.11,4.69-6.1a55.37,55.37,0,0,0-15.26-4.87.07.07,0,0,1,0-.14,51.75,51.75,0,0,1,15.49,4.7c.89-1.1,1.79-2.19,2.69-3.27s2.09-2.4,3-3.69a.07.07,0,1,1,.11.09,55.13,55.13,0,0,0-3.54,4.33h0a55.3,55.3,0,0,1,5.68,4.56q2.77,2.46,5.42,5.09c.06.07,0,.17-.1.1-1.74-1.72-3.54-3.37-5.43-4.94s-3.86-3-5.76-4.55c0,0,0,0,0,0l-1.3,1.71-.66.85a.13.13,0,0,1,0,.06l-2.17,2.84a23.09,23.09,0,0,1,2.16,3.89c.62,1.32,1.17,2.68,1.67,4.05a59.72,59.72,0,0,1,2.32,8.73c0,.09-.12.13-.13,0A51,51,0,0,0,63,349.09c-.54-1.43-1.16-2.82-1.8-4.2s-1.28-2.48-1.82-3.75c-.63.83-1.25,1.66-1.86,2.5l-.52.74c0,.06,0,.13-.07.13h0c-1.92,2.68-3.74,5.41-5.52,8.18a2.52,2.52,0,0,1,.25.61c.11.34.22.68.32,1a18.27,18.27,0,0,1,.48,2.07c.12.66.22,1.32.28,2a16.79,16.79,0,0,0,.17,2.25c0,.12-.16.12-.14,0a7.51,7.51,0,0,0-.15-2.11c-.11-.72-.24-1.43-.41-2.14s-.32-1.28-.51-1.91c-.09-.32-.2-.63-.3-.94s-.14-.34-.2-.52q-1.24,2-2.46,3.93l-4.8,7.83C43.81,364.91,43.6,364.79,43.68,364.66Z" style="fill:#263238"></path><path d="M86.69,400.46c.07-2.64.49-5.3.77-7.93s.59-5.27.87-7.91c.54-5.09.85-10.29,2-15.28a22.23,22.23,0,0,1,6.22-11.43,10.18,10.18,0,0,1,6.09-2.91,10.48,10.48,0,0,1,6.48,2,22.48,22.48,0,0,1,5.44,5.73,56.14,56.14,0,0,1,4.24,6.89c0,.1-.09.15-.14.07a35.3,35.3,0,0,0-9.18-10.29,10.74,10.74,0,0,0-5.79-2.41,7.83,7.83,0,0,0-5.61,2.23c-3.08,2.68-4.87,6.62-5.93,10.49-1.26,4.59-1.67,9.41-2.29,14.12-.38,2.79-.73,5.59-1.1,8.38s-.6,5.64-1.19,8.38A.46.46,0,0,1,86.69,400.46Z" style="fill:#263238"></path><path d="M99.68,379.94a14.79,14.79,0,0,0,2.88,2.94c-.44-2.58-1-7.16.34-9.6,2-3.79,4.41-1.9,3.21,1.4a26.84,26.84,0,0,0-2,9.33,40.54,40.54,0,0,0,8.78,4.14,14.7,14.7,0,0,1-.29-4.52c.41-4,3.51-4,2.7.24a25.64,25.64,0,0,0-.42,4.95,91.23,91.23,0,0,0,13.67,3.09,40.15,40.15,0,0,0,5.67-10.08c-3.3-.83-10-1-9.83-3.37.19-3.17,6.65-.73,10.43,1.57A25.43,25.43,0,0,0,136,371.5a43.34,43.34,0,0,0-9.09-1.51c-6.79-.58-6.46-4.43-1.54-4.34,3.63.07,8.22,2.29,10.39,3.44-1.41-9.23-8.45-15.15-14.1-15.37-9.49-.39-6.08,11.43-6.08,11.43s-6.43-4.53-12.5-4.41S93.19,370.91,99.68,379.94ZM125,362.87c-.21-1.33,4-1.65,4.24.05C129.54,364.84,125.25,364.22,125,362.87Zm6.81,13.86c-.08-.87,1.75-1,2.16.07C134.29,377.51,131.93,377.58,131.85,376.73Zm-22.79.8c1.43.21,2.24,5.32-.22,5.22C107,382.67,107.85,377.36,109.06,377.53Z" style="fill:#A254CE"></path><path d="M111,383.22c.24-.64.45-1.29.65-1.94a20.28,20.28,0,0,0-.47,2C111.19,383.39,111,383.34,111,383.22Z" style="fill:#263238"></path><path d="M113.55,375c.44-1.31.94-2.6,1.45-3.89.27-.69.55-1.37.85-2.05a9.09,9.09,0,0,1,.85-1.71,13.67,13.67,0,0,1-.77-1.65.06.06,0,0,1,.09-.06,21,21,0,0,1,1.85,2.87l.77,1.36a14.36,14.36,0,0,1,1.6.24c.57.11,1.14.22,1.7.35l1.69.39c.56.14,1.12.32,1.68.41.14,0,.08.23,0,.18a11.12,11.12,0,0,0-1.78-.47c-.54-.11-1.09-.21-1.64-.29s-1.11-.15-1.66-.2l-1.26-.1.69,1.19a1.74,1.74,0,0,0,.1.19,5.27,5.27,0,0,1,1.36.16c.49.09,1,.18,1.47.29,1,.22,2,.45,3,.73,2,.57,4.08,1.23,6.11,1.89.11,0,0,.21-.07.17a57,57,0,0,0-6.14-1.7c-1-.22-1.94-.45-2.92-.65l-1.46-.31a8.77,8.77,0,0,1-1.13-.25c1,1.93,2,3.89,2.93,5.89,2,4.36,3.63,8.84,5.31,13.31.05.11-.13.19-.17.08a121,121,0,0,0-5.65-13L121.16,376c0,.16-.07.31-.1.47-.1.53-.19,1.06-.28,1.59-.18,1.06-.36,2.11-.52,3.18a37.51,37.51,0,0,0-.77,6.59.09.09,0,1,1-.18,0c.17-1.05.17-2.15.24-3.21s.15-2.22.28-3.33.26-2.13.43-3.19c.09-.53.19-1.05.28-1.58a3.15,3.15,0,0,1,.3-1.15l-1.67-3.35c-.53-1-1.06-2.08-1.6-3.12l-.72-1.32a13,13,0,0,1-.63,1.6l-.74,1.79c-.54,1.33-1,2.66-1.55,4-.72,1.9-1.51,3.85-2.1,5.82C112.4,378.88,112.9,376.91,113.55,375Z" style="fill:#263238"></path><path d="M111.69,381.28c0-.15.09-.3.14-.46C111.78,381,111.73,381.13,111.69,381.28Z" style="fill:#263238"></path><polygon points="70.82 395.32 71.48 409.45 73.2 445.87 110.78 445.87 112.49 409.45 113.16 395.32 70.82 395.32" style="fill:#37474f"></polygon><polygon points="70.82 395.32 71.48 409.45 112.49 409.45 113.16 395.32 70.82 395.32" style="fill:#263238"></polygon><rect x="68.14" y="389.61" width="47.69" height="11.43" transform="translate(183.98 790.65) rotate(180)" style="fill:#37474f"></rect><rect x="101.14" y="445.87" width="6.6" height="5.98" style="fill:#37474f"></rect><rect x="101.14" y="445.87" width="6.6" height="2.99" style="fill:#263238"></rect><rect x="76.24" y="445.87" width="6.59" height="5.98" style="fill:#37474f"></rect><rect x="76.24" y="445.87" width="6.59" height="2.99" style="fill:#263238"></rect></g></svg>